<svg width="254" height="169" viewBox="0 0 254 169" fill="none" xmlns="http://www.w3.org/2000/svg">
<g clip-path="url(#clip0_1257_249)">
<path d="M234.352 81.6059H28.3862C25.6254 81.6059 23.3794 79.324 23.3794 76.5189V5.08667C23.3794 2.28187 25.6254 0 28.3862 0H234.352C237.113 0 239.359 2.28187 239.359 5.08667V76.5189C239.359 79.324 237.113 81.6059 234.352 81.6059ZM28.3862 0.606445C25.9546 0.606445 23.9763 2.61633 23.9763 5.08667V76.5189C23.9763 78.9894 25.9546 80.9994 28.3862 80.9994H234.352C236.784 80.9994 238.762 78.9894 238.762 76.5189V5.08667C238.762 2.61633 236.784 0.606445 234.352 0.606445H28.3862Z" fill="#3F3D56"/>
<path d="M254 166.941H0V167.452H254V166.941Z" fill="#E6E6E6"/>
<path d="M254 140.864H0V141.375H254V140.864Z" fill="#E6E6E6"/>
<path d="M115.755 84.2334C115.938 86.5621 117.268 88.3541 118.727 88.2359C120.186 88.1178 121.22 86.1344 121.037 83.8048C120.977 82.8733 120.698 81.9699 120.223 81.1705L119.328 71.3135L114.784 71.839L116.149 81.5004C115.805 82.3664 115.67 83.3035 115.755 84.2334Z" fill="#FFB6B6"/>
<path d="M110.327 38.2464C110.327 38.2464 114.575 35.9619 116.729 39.3758C118.882 42.7896 120.369 79.7107 120.369 79.7107L114.399 80.3583L113.268 54.341L110.327 38.2464Z" fill="#E6E6E6"/>
<path d="M101.511 138.938L104.969 138.938L106.614 125.386L101.51 125.386L101.511 138.938Z" fill="#FFB6B6"/>
<path d="M113.36 138.859C113.467 139.043 113.524 139.638 113.524 139.852C113.524 140.51 112.999 141.044 112.351 141.044H101.64C101.198 141.044 100.84 140.68 100.84 140.231V139.778C100.84 139.778 100.31 138.416 101.401 136.738C101.401 136.738 102.756 138.052 104.782 135.994L105.379 134.895L109.704 138.108L112.101 138.407C112.625 138.473 113.09 138.397 113.36 138.859Z" fill="#2F2E41"/>
<path d="M121.524 138.357L124.875 137.487L123.167 123.942L118.222 125.226L121.524 138.357Z" fill="#FFB6B6"/>
<path d="M132.985 135.3C133.134 135.451 133.334 136.013 133.386 136.221C133.546 136.859 133.167 137.508 132.539 137.671L122.162 140.365C121.734 140.476 121.298 140.213 121.188 139.778L121.078 139.339C121.078 139.339 120.233 138.153 120.881 136.253C120.881 136.253 122.514 137.185 123.976 134.681L124.287 133.466L129.259 135.492L131.655 135.179C132.179 135.111 132.611 134.921 132.985 135.3Z" fill="#2F2E41"/>
<path d="M98.6498 35.3338L98.4858 34.1248L100.435 29.289L105.79 28.6846L106.946 35.6076L98.6498 35.3338Z" fill="#FFB6B6"/>
<path opacity="0.1" d="M98.6498 35.3338L98.4858 34.1248L100.435 29.289L105.79 28.6846L106.946 35.6076L98.6498 35.3338Z" fill="black"/>
<path d="M92.4024 69.4862L90.0225 76.1354L91.8074 79.7622L100.732 132.351H106.665L105.492 85.8069L119.176 132.351H125.049L120.327 100.919L116.797 71.9041L114.655 70.5602L104.302 64.6504L92.4024 69.4862Z" fill="#2F2E41"/>
<path d="M107.574 74.0202L104.004 74.6246L99.2446 63.1396H109.954L107.574 74.0202Z" fill="#E6E6E6"/>
<path d="M114.714 70.9968L107.574 74.0192L105.194 68.579L104.004 74.6237L91.5098 70.5374L93.2947 63.1387L91.5098 38.9598L97.8106 34.6922L98.6495 34.124L106.384 34.7285L107.063 35.1033L111.739 37.7509L112.929 57.6984L114.714 70.9968Z" fill="#2F2E41"/>
<path d="M107.062 35.1033L103.707 49.5381L97.8105 34.6922L98.6495 34.124L106.384 34.7285L107.062 35.1033Z" fill="#E6E6E6"/>
<path d="M101.327 34.124L100.137 36.2061L101.327 36.9001L100.732 49.5756L103.112 52.8627L105.492 48.0045L103.707 36.9001L104.302 34.124H101.327Z" fill="#2F2E41"/>
<path d="M103.112 32.9156C106.233 32.9156 108.764 30.3446 108.764 27.1732C108.764 24.0017 106.233 21.4307 103.112 21.4307C99.9901 21.4307 97.4595 24.0017 97.4595 27.1732C97.4595 30.3446 99.9901 32.9156 103.112 32.9156Z" fill="#FFB6B6"/>
<path d="M99.4996 27.6768L100.721 28.2183L101.254 24.9693C101.254 24.9693 103.386 23.8863 104.985 24.4278C106.584 24.9693 109.249 24.4278 109.249 24.4278C109.249 24.4278 109.249 19.0127 105.518 19.0127C101.787 19.0127 98.0558 19.5542 98.0558 21.1787C98.0558 22.8032 96.4568 24.4278 96.4568 24.4278C96.4568 24.4278 94.3248 27.6768 96.4568 29.8428C98.5888 32.0089 99.6548 32.0089 99.6548 32.0089L99.4996 27.6768Z" fill="#2F2E41"/>
<path d="M88.5322 84.0631C88.4702 86.3984 89.606 88.3238 91.0688 88.3636C92.5316 88.4034 93.7673 86.5428 93.829 84.2067C93.8663 83.2739 93.6831 82.3456 93.2948 81.4994L93.4344 71.6016L88.8612 71.634L89.2091 81.3881C88.7764 82.2121 88.5443 83.1293 88.5322 84.0631Z" fill="#FFB6B6"/>
<path d="M94.1902 37.7403C94.1902 37.7403 90.3228 36.5314 88.5378 40.1582C86.7529 43.785 89.1328 80.6579 89.1328 80.6579H95.1365L93.5431 54.6655L94.1902 37.7403Z" fill="#E6E6E6"/>
<path d="M242.546 106.434L228.124 101.948C227.805 101.849 227.47 101.813 227.138 101.842L154.044 108.162C153.002 108.252 152.74 109.68 153.68 110.145L156.022 111.304H155.959V166.779H158.166V112.365L165.503 115.997C166.065 116.275 166.691 116.388 167.313 116.325L168.094 116.244V166.779H170.3V116.018L226.834 110.216V166.779H229.04V109.99L238.417 109.028V166.779H240.623V108.801L242.333 108.626C243.534 108.503 243.7 106.793 242.546 106.434Z" fill="#3F3D56"/>
<path d="M175.264 107.942C176.643 107.942 197.05 105.42 197.05 105.42L200.084 109.623L178.849 113.825L175.264 107.942Z" fill="white"/>
<path d="M197.661 164.624L194.116 164.618L192.453 150.721L197.686 150.73L197.661 164.624Z" fill="#A0616A"/>
<path d="M185.514 164.521C185.403 164.71 185.344 165.32 185.344 165.539C185.343 166.215 185.88 166.763 186.545 166.764L197.525 166.783C197.979 166.784 198.347 166.411 198.347 165.951L198.348 165.486C198.348 165.486 198.894 164.091 197.778 162.369C197.778 162.369 196.386 163.714 194.313 161.6L193.702 160.472L189.264 163.758L186.806 164.061C186.268 164.127 185.791 164.049 185.514 164.521Z" fill="#2F2E41"/>
<path d="M216.691 158.162L213.893 160.306L204.423 150.364L208.552 147.2L216.691 158.162Z" fill="#A0616A"/>
<path d="M207.059 165.443C207.083 165.659 207.394 166.175 207.523 166.348C207.918 166.881 208.664 166.987 209.188 166.585L217.851 159.946C218.209 159.672 218.28 159.155 218.01 158.792L217.738 158.425C217.738 158.425 217.349 156.996 215.459 156.314C215.459 156.314 215.151 158.218 212.277 157.809L211.133 157.29L209.565 162.569L207.807 164.297C207.422 164.676 207 164.903 207.059 165.443Z" fill="#2F2E41"/>
<path d="M209.281 86.3398C209.281 89.6615 206.63 92.3543 203.361 92.3543C200.091 92.3543 197.44 89.6615 197.44 86.3398C197.44 83.018 200.091 80.3252 203.361 80.3252C206.63 80.3252 209.281 83.018 209.281 86.3398Z" fill="#A0616A"/>
<path d="M208.723 121.018C208.723 121.018 186.926 119.765 185.692 122.272C184.458 124.779 192.362 159.215 192.362 159.215L199.413 157.713L195.973 133.553C195.973 133.553 214.163 138.447 216.63 132.598C219.098 126.748 218.387 124.57 218.387 124.57L208.723 121.018Z" fill="#2F2E41"/>
<path d="M214.308 116.81C214.308 116.81 192.96 121.459 192.423 124.208C191.886 126.957 208.475 158.042 208.475 158.042L214.884 154.699L205.276 132.324C205.276 132.324 224.092 132.156 224.948 125.851C225.805 119.547 224.553 117.637 224.553 117.637L214.308 116.81Z" fill="#2F2E41"/>
<path d="M216.743 93.2324H206.487L199.469 104.932C199.469 104.932 197.824 112.492 199.469 113.308C201.114 114.124 201.114 122.898 201.114 122.898L218.388 124.57C218.388 124.57 220.855 98.2464 220.033 95.7394C219.21 93.2324 216.743 93.2324 216.743 93.2324Z" fill="#3393C3"/>
<path d="M200.497 100.962L199.469 113.308L187.904 108.321L185.144 106.911C184.604 106.195 183.902 105.621 183.098 105.236C181.099 104.247 178.977 104.492 178.358 105.784C177.738 107.076 178.855 108.925 180.854 109.914C181.647 110.321 182.525 110.528 183.413 110.519L191.489 115.179L191.499 115.161L191.534 115.226L204.199 120.6L207.112 104.393L200.497 100.962Z" fill="#A0616A"/>
<path d="M199.264 87.174C199.264 87.174 193.095 88.0097 195.562 82.5779C195.562 82.5779 195.186 79.6334 197.019 79.4344C198.852 79.2353 201.32 75.8927 201.32 75.8927C201.32 75.8927 206.977 72.9679 209.906 75.8927C212.835 78.8175 221.472 95.9484 221.472 95.9484L215.714 102.216C215.714 102.216 212.253 92.971 208.226 94.0419C204.199 95.1128 200.497 98.3057 200.497 98.3057C200.497 98.3057 196.411 96.2279 198.248 94.4169C200.086 92.6058 199.264 87.174 199.264 87.174Z" fill="#2F2E41"/>
<path d="M207.489 96.3664C207.489 96.3664 204.61 92.606 202.554 95.5308C200.498 98.4556 198.853 102.216 198.853 102.216L207.078 105.141L207.489 96.3664Z" fill="#3393C3"/>
<path d="M238.719 165.947L229.163 135.088L229.164 135.088H229.186L229.148 135.037L229.147 135.036L228.466 132.838L228.466 132.838C229.503 131.93 230.209 130.633 230.35 129.14L225.982 104.731C226.282 101.525 223.864 98.7237 220.695 98.6088L210.839 98.5836C208.037 98.4828 205.61 100.539 205.202 103.358L204.984 104.854L201.964 125.724C201.854 126.475 201.898 127.215 202.072 127.907L199.899 128.196L199.24 128.285L196.633 128.63L196.625 128.633L196.3 128.675H195.947V137.64H195.969V166.297C195.969 166.482 196.118 166.633 196.3 166.633C196.485 166.633 196.633 166.482 196.633 166.297V137.64H200.5L204.358 166.263C204.383 166.431 204.523 166.555 204.689 166.555C204.703 166.555 204.719 166.555 204.733 166.552C204.915 166.527 205.042 166.356 205.017 166.171L201.173 137.64H219.724C221.566 137.64 223.273 137.046 224.663 136.03L232.018 166.211C232.057 166.363 232.192 166.465 232.34 166.465C232.367 166.465 232.395 166.462 232.422 166.455C232.6 166.409 232.707 166.225 232.662 166.044L225.236 135.571C225.335 135.488 225.433 135.398 225.527 135.306L228.479 135.13L238.085 166.15C238.13 166.294 238.261 166.386 238.402 166.386C238.435 166.386 238.469 166.381 238.502 166.37C238.677 166.314 238.774 166.125 238.719 165.947ZM227.835 133.317C227.86 133.303 227.882 133.286 227.904 133.272L227.975 133.501L227.835 133.317Z" fill="#E6E6E6"/>
<path d="M51.2051 113.641L57.6366 109.485L60.2514 111.088L51.2051 121.648V113.641Z" fill="#FFB6B6"/>
<path d="M42.4103 97.5568C42.4103 97.5568 38.1385 98.578 40.1487 104.45C42.159 110.322 48.6925 122.576 50.7027 121.81C52.713 121.044 52.9643 113.385 52.9643 113.385C52.9643 113.385 52.713 113.64 51.7079 112.619C50.7027 111.598 50.7027 112.064 50.7027 110.938C50.7027 109.811 49.8806 108.976 49.8806 108.976L48.9437 107.003C48.9437 107.003 48.9437 97.8121 45.1745 97.3015C41.4052 96.7909 42.4103 97.5568 42.4103 97.5568Z" fill="#E6E6E6"/>
<path d="M62.3688 110.813C64.037 109.118 64.5541 106.895 63.5237 105.849C62.4933 104.802 60.3056 105.327 58.6374 107.022C56.9691 108.717 56.452 110.939 57.4824 111.986C58.5128 113.033 60.7005 112.508 62.3688 110.813Z" fill="#FFB6B6"/>
<path d="M25.7715 131.383L30.1601 138.763L55.7349 137.226L48.9251 128.309L25.7715 131.383Z" fill="#E6E6E6"/>
<path d="M33.4133 165.899C33.2643 165.899 33.1345 165.787 33.1138 165.633L25.4716 108.929C25.4489 108.76 25.5648 108.605 25.7304 108.582C25.8959 108.558 26.0485 108.677 26.0713 108.845L33.7135 165.55C33.7362 165.718 33.6203 165.873 33.4547 165.896C33.4408 165.898 33.4269 165.899 33.4133 165.899Z" fill="#E6E6E6"/>
<path d="M25.7714 165.971C25.6043 165.971 25.4688 165.833 25.4688 165.663V108.897C25.4688 108.728 25.6043 108.59 25.7714 108.59C25.9386 108.59 26.0741 108.728 26.0741 108.897V165.663C26.0741 165.833 25.9386 165.971 25.7714 165.971Z" fill="#E6E6E6"/>
<path d="M64.1337 165.745C64.0051 165.745 63.8857 165.661 63.8451 165.53L45.7611 107.134C45.7109 106.972 45.7995 106.8 45.959 106.749C46.1184 106.698 46.2884 106.788 46.3385 106.95L64.4225 165.345C64.4727 165.507 64.3841 165.68 64.2246 165.731C64.1944 165.741 64.1638 165.745 64.1337 165.745Z" fill="#E6E6E6"/>
<path d="M58.61 165.818C58.4749 165.818 58.3518 165.725 58.3169 165.586L45.7565 114.047C45.7153 113.883 45.8132 113.715 45.9752 113.674C46.1377 113.632 46.3019 113.731 46.3432 113.896L58.9036 165.434C58.9448 165.599 58.8469 165.766 58.6849 165.808C58.6598 165.815 58.6347 165.818 58.61 165.818Z" fill="#E6E6E6"/>
<path d="M25.7715 109.802L46.7308 109.475L50.5897 131.844H26.0741L25.7715 109.802Z" fill="#E6E6E6"/>
<path d="M57.9809 142.696L52.6987 152.144L58.8317 153.516L61.3886 146.796L57.9809 142.696Z" fill="#FFB6B6"/>
<path d="M54.5962 150.361C54.5962 150.361 54.391 148.82 53.1843 149.309C51.9776 149.798 48.4951 151.615 48.4951 151.615C48.4951 151.615 57.5784 166.609 59.3022 165.911C61.026 165.212 58.9624 160.974 58.9624 160.974L59.4179 153.482L54.5962 150.361Z" fill="#2F2E41"/>
<path d="M34.6208 124.363C34.6208 124.363 32.7362 133.171 38.5157 136.234C44.2953 139.298 64.0213 131.767 64.0213 131.767L54.975 145.537L61.2571 148.106C61.2571 148.106 75.5804 128.958 74.5753 125.895C73.5701 122.831 66.7854 122.576 66.7854 122.576L51.457 123.342L47.4364 122.065L34.6208 124.363Z" fill="#2F2E41"/>
<path d="M50.1663 146.889L41.8623 153.736L47.0835 157.281L51.8719 151.967L50.1663 146.889Z" fill="#FFB6B6"/>
<path d="M44.2683 152.776C44.2683 152.776 44.629 151.265 43.3299 151.274C42.0308 151.284 38.1362 151.689 38.1362 151.689C38.1362 151.689 41.2262 169.013 43.082 169C44.9378 168.987 44.5339 164.276 44.5339 164.276L47.6415 157.466L44.2683 152.776Z" fill="#2F2E41"/>
<path d="M34.9738 121.177C34.9738 121.177 30.0638 128.684 34.3498 133.674C38.6359 138.664 59.707 138.942 59.707 138.942L46.3486 148.424L51.2803 153.139C51.2803 153.139 71.4795 140.599 71.6406 137.374C71.8016 134.149 65.5734 131.403 65.5734 131.403L51.0215 126.45L47.7338 123.774L34.9738 121.177Z" fill="#2F2E41"/>
<path d="M47.5875 103.789C47.5875 103.789 42.8131 102.002 40.5515 102.002C40.3354 102.002 40.1218 102.027 39.9082 102.073C38.4608 102.384 37.129 103.648 36.4907 104.337C36.2419 104.608 36.0987 104.789 36.0987 104.789C36.0987 104.789 36.1138 104.613 36.144 104.304C36.2922 102.681 36.84 97.3526 37.8225 93.9419C38.1743 92.7241 38.5789 91.7514 39.0438 91.2792C40.1268 90.1763 40.6269 88.8539 40.8581 87.8684C41.0541 87.0234 41.0541 86.4286 41.0541 86.4286L39.2222 85.6269L38.883 83.3752C38.8227 83.6407 38.5437 84.159 37.6064 85.1521C37.526 85.2363 37.4381 85.3078 37.3451 85.3691C35.9932 86.232 33.2366 84.7308 31.7515 83.7862C32.3696 81.6035 33.4904 79.6071 35.5258 79.2803C40.3002 78.5144 40.3002 75.7062 43.3156 78.7697C43.5644 79.0224 43.8157 79.265 44.067 79.4998C45.0319 81.3737 45.3837 83.8858 45.5094 85.632C45.5998 86.8549 45.5772 87.705 45.5772 87.705C45.5772 87.705 46.8336 95.3639 48.8439 96.8957C50.8542 98.4274 47.5875 103.789 47.5875 103.789Z" fill="#2F2E41"/>
<path d="M38.2899 91.5342L34.8945 96.5939L42.5617 98.6824V91.5342H38.2899Z" fill="#FFB6B6"/>
<path opacity="0.1" d="M38.2899 91.5342L34.8945 96.5939L42.5617 98.6824V91.5342H38.2899Z" fill="black"/>
<path d="M43.0385 96.4083L35.7512 93.3447C35.7512 93.3447 25.9511 97.6847 26.7049 106.109C27.4588 114.534 34.4948 129.086 34.4948 129.086L48.5668 122.959L47.0591 106.62L43.0385 96.4083Z" fill="#E6E6E6"/>
<path d="M39.914 93.7929C43.4647 93.7929 46.3432 90.8686 46.3432 87.2612C46.3432 83.6538 43.4647 80.7295 39.914 80.7295C36.3633 80.7295 33.4849 83.6538 33.4849 87.2612C33.4849 90.8686 36.3633 93.7929 39.914 93.7929Z" fill="#FFB6B6"/>
<path d="M48.5926 84.8968C47.3362 86.1733 46.331 87.4497 46.331 87.4497L45.8285 85.4074C45.8285 85.4074 45.7129 85.4942 45.5093 85.632C44.7128 86.1835 42.5743 87.5697 40.858 87.8684C40.0941 88.0012 39.4157 87.9169 38.9734 87.4497C38.0361 86.4566 37.7572 85.9384 37.6969 85.6729L37.3576 87.9246L35.5258 88.7262C35.5258 88.7262 35.5258 91.5293 37.536 93.5768C37.634 93.6764 37.7295 93.7989 37.8225 93.9419C38.7824 95.4124 39.4709 99.012 39.9082 102.073C40.2952 104.794 40.4811 107.087 40.4811 107.087C40.4811 107.087 38.5789 104.667 36.4907 104.337C36.3751 104.32 36.2595 104.307 36.1439 104.304C36.1062 104.299 36.066 104.299 36.0283 104.299C33.7668 104.299 28.9923 106.086 28.9923 106.086C28.9923 106.086 25.7256 100.725 27.7359 99.1933C29.7462 97.6615 31.0026 90.0027 31.0026 90.0027C31.0026 90.0027 30.9197 86.7247 31.7514 83.7862C32.3696 81.6035 33.4903 79.6071 35.5258 79.2803C40.3002 78.5144 40.3002 75.7062 43.3156 78.7697C43.5644 79.0224 43.8157 79.265 44.067 79.4998C46.8763 82.1243 49.746 83.725 48.5926 84.8968Z" fill="#2F2E41"/>
<path d="M20.395 119.167H18.0073V167.076H20.395V119.167Z" fill="#3F3D56"/>
<path d="M78.2964 119.167H75.9087V167.076H78.2964V119.167Z" fill="#3F3D56"/>
<path d="M63.0748 98.8506H47.2563V114.921H63.0748V98.8506Z" fill="#3393C3"/>
<path d="M38.1382 115.939L44.5697 111.783L47.1845 113.386L38.1382 123.946V115.939Z" fill="#FFB6B6"/>
<path d="M29.3434 99.8546C29.3434 99.8546 25.0716 100.876 27.0818 106.748C29.0921 112.619 35.6256 124.874 37.6359 124.108C39.6461 123.342 39.8974 115.683 39.8974 115.683C39.8974 115.683 39.6461 115.938 38.641 114.917C37.6359 113.896 37.6359 114.362 37.6359 113.236C37.6359 112.109 36.8137 111.274 36.8137 111.274L35.8769 109.301C35.8769 109.301 35.8769 100.11 32.1076 99.5993C28.3383 99.0888 29.3434 99.8546 29.3434 99.8546Z" fill="#E6E6E6"/>
<path d="M49.3019 113.111C50.9701 111.416 51.4872 109.193 50.4568 108.146C49.4264 107.1 47.2387 107.625 45.5705 109.32C43.9022 111.015 43.3851 113.237 44.4155 114.284C45.4459 115.331 47.6336 114.806 49.3019 113.111Z" fill="#FFB6B6"/>
<path d="M83.0717 117.348H10.8442V122.806H83.0717V117.348Z" fill="#3F3D56"/>
<path d="M156.454 73.6826H145.787C144.941 73.6826 144.256 74.379 144.256 75.2381V79.7077C144.256 80.5668 144.941 81.2632 145.787 81.2632H156.454C157.3 81.2632 157.985 80.5668 157.985 79.7077V75.2381C157.985 74.379 157.3 73.6826 156.454 73.6826Z" fill="#3F3D56"/>
<path d="M178.839 78.1523H168.172C167.326 78.1523 166.641 78.8488 166.641 79.7078V79.7079C166.641 80.5669 167.326 81.2634 168.172 81.2634H178.839C179.684 81.2634 180.37 80.5669 180.37 79.7079V79.7078C180.37 78.8488 179.684 78.1523 178.839 78.1523Z" fill="#3393C3"/>
</g>
<defs>
<clipPath id="clip0_1257_249">
<rect width="254" height="169" fill="white"/>
</clipPath>
</defs>
</svg>
