<svg width="18" height="19" viewBox="0 0 18 19" fill="none" xmlns="http://www.w3.org/2000/svg">
<path d="M17.9 9.1C17.8 9 17.8 8.9 17.7 8.8L14.7 5.8C14.3 5.4 13.7 5.4 13.3 5.8C12.9 6.2 12.9 6.8 13.3 7.2L14.6 8.5H10C9.4 8.5 9 8.9 9 9.5C9 10.1 9.4 10.5 10 10.5H14.6L13.3 11.8C12.9 12.2 12.9 12.8 13.3 13.2C13.5 13.4 13.8 13.5 14 13.5C14.2 13.5 14.5 13.4 14.7 13.2L17.7 10.2C17.8 10.1 17.9 10 17.9 9.9C18 9.6 18 9.4 17.9 9.1Z" fill="#F0754E"/>
<path d="M12.5 15.6C11.4 16.2 10.2 16.5 9 16.5C5.1 16.5 2 13.4 2 9.5C2 5.6 5.1 2.5 9 2.5C10.2 2.5 11.4 2.8 12.5 3.4C13 3.7 13.6 3.5 13.9 3C14.2 2.5 14 1.9 13.5 1.6C12.1 0.9 10.6 0.5 9 0.5C4 0.5 0 4.5 0 9.5C0 14.5 4 18.5 9 18.5C10.6 18.5 12.1 18.1 13.5 17.3C14 17 14.1 16.4 13.9 15.9C13.6 15.5 13 15.3 12.5 15.6Z" fill="#F0754E"/>
</svg>
