<svg width="15" height="15" viewBox="0 0 15 15" fill="none" xmlns="http://www.w3.org/2000/svg">
<path d="M0.937416 14.5314C0.871269 14.5319 0.805786 14.5182 0.745272 14.4915C0.684758 14.4648 0.630582 14.4256 0.586307 14.3765C0.542032 14.3273 0.50866 14.2694 0.488384 14.2064C0.468108 14.1434 0.461388 14.0769 0.468666 14.0111L0.890541 10.1814C0.902364 10.0749 0.950342 9.97565 1.02648 9.9002L9.97023 0.961136C10.1253 0.805094 10.3097 0.681259 10.5129 0.596756C10.716 0.512253 10.9338 0.46875 11.1538 0.46875C11.3738 0.46875 11.5917 0.512253 11.7948 0.596756C11.9979 0.681259 12.1823 0.805094 12.3374 0.961136L14.0624 2.6627C14.2185 2.81779 14.3423 3.0022 14.4268 3.20533C14.5113 3.40846 14.5548 3.62629 14.5548 3.84629C14.5548 4.0663 14.5113 4.28413 14.4268 4.48726C14.3423 4.69038 14.2185 4.8748 14.0624 5.02989L5.09992 13.9689C5.02447 14.0451 4.9252 14.0931 4.81867 14.1049L0.988978 14.5314H0.937416ZM1.80929 10.4439L1.4671 13.533L4.55617 13.1908L13.378 4.36426C13.5149 4.22565 13.5916 4.03872 13.5916 3.84395C13.5916 3.64918 13.5149 3.46225 13.378 3.32364L11.6765 1.62207C11.5379 1.48524 11.3509 1.40852 11.1562 1.40852C10.9614 1.40852 10.7745 1.48524 10.6359 1.62207L1.80929 10.4439Z" fill="#101820"/>
<path d="M12.4316 6.44102C12.3087 6.4405 12.1908 6.39168 12.1035 6.30508L8.69571 2.89727C8.60806 2.80714 8.55981 2.68588 8.56157 2.56017C8.56333 2.43447 8.61495 2.3146 8.70508 2.22696C8.79522 2.13931 8.91647 2.09106 9.04218 2.09282C9.16789 2.09458 9.28775 2.1462 9.3754 2.23633L12.7645 5.6254C12.8518 5.71322 12.9008 5.83203 12.9008 5.95586C12.9008 6.0797 12.8518 6.19851 12.7645 6.28633C12.7222 6.33318 12.671 6.37102 12.6138 6.3976C12.5566 6.42418 12.4947 6.43895 12.4316 6.44102Z" fill="#101820"/>
<path d="M8.69145 5.644L4.43555 9.8999L5.09846 10.5628L9.35436 6.30692L8.69145 5.644Z" fill="#101820"/>
</svg>
