<svg width="22" height="24" viewBox="0 0 22 24" fill="none" xmlns="http://www.w3.org/2000/svg">
<path d="M11.0001 23.8333C10.0277 23.8333 9.09506 23.447 8.40743 22.7594C7.7198 22.0717 7.3335 21.1391 7.3335 20.1667C7.3335 19.9235 7.43007 19.6904 7.60198 19.5185C7.77389 19.3466 8.00704 19.25 8.25016 19.25H13.7501C13.9932 19.25 14.2264 19.3466 14.3983 19.5185C14.5702 19.6904 14.6668 19.9235 14.6668 20.1667C14.6668 21.1391 14.2805 22.0717 13.5929 22.7594C12.9052 23.447 11.9726 23.8333 11.0001 23.8333ZM9.41432 21.0833C9.57548 21.3611 9.80679 21.5918 10.0851 21.7521C10.3634 21.9124 10.679 21.9967 11.0001 21.9967C11.3213 21.9967 11.6369 21.9124 11.9152 21.7521C12.1935 21.5918 12.4248 21.3611 12.586 21.0833H9.41432Z" fill="white"/>
<path d="M12.8333 3.66665H9.16666C8.92355 3.66665 8.69039 3.57007 8.51848 3.39816C8.34658 3.22626 8.25 2.9931 8.25 2.74999C8.25 2.02064 8.53973 1.32117 9.05545 0.805452C9.57117 0.28973 10.2706 0 11 0C11.7293 0 12.4288 0.28973 12.9445 0.805452C13.4602 1.32117 13.75 2.02064 13.75 2.74999C13.75 2.9931 13.6534 3.22626 13.4815 3.39816C13.3096 3.57007 13.0764 3.66665 12.8333 3.66665Z" fill="white"/>
<path d="M21.0832 21.0834H0.916664C0.67355 21.0834 0.440394 20.9868 0.268486 20.8149C0.0965787 20.643 1.93514e-06 20.4099 1.93514e-06 20.1667C-0.000801977 19.1315 0.248882 18.1115 0.727743 17.1936C1.20661 16.2758 1.90043 15.4875 2.74999 14.8959V10.0835C2.74994 7.90493 3.61158 5.81481 5.14687 4.26921C6.68216 2.72362 8.76647 1.84802 10.9449 1.8335H11.0458C13.2338 1.8335 15.3322 2.70269 16.8794 4.24985C18.4265 5.79702 19.2957 7.89543 19.2957 10.0835V14.8959C20.1368 15.4925 20.8218 16.2831 21.2925 17.2006C21.7632 18.1181 22.0059 19.1355 21.9999 20.1667C21.9999 20.4099 21.9033 20.643 21.7314 20.8149C21.5595 20.9868 21.3263 21.0834 21.0832 21.0834ZM1.92499 19.2501H20.0749C19.9451 18.6146 19.6818 18.0139 19.3026 17.4877C18.9233 16.9615 18.4367 16.5217 17.8749 16.1976C17.735 16.1168 17.619 16.0005 17.5385 15.8605C17.458 15.7204 17.4159 15.5616 17.4166 15.4001V10.0835C17.4166 8.38166 16.7405 6.74956 15.5372 5.54621C14.3338 4.34286 12.7017 3.66682 10.9999 3.66682C9.29815 3.66682 7.66605 4.34286 6.4627 5.54621C5.25935 6.74956 4.58331 8.38166 4.58331 10.0835V15.4001C4.58395 15.5616 4.5419 15.7204 4.46142 15.8605C4.38093 16.0005 4.26487 16.1168 4.12498 16.1976C3.56317 16.5217 3.07655 16.9615 2.69731 17.4877C2.31806 18.0139 2.05482 18.6146 1.92499 19.2501Z" fill="white"/>
</svg>
