<svg width="178" height="167" viewBox="0 0 178 167" fill="none" xmlns="http://www.w3.org/2000/svg">
<path d="M99.3125 65.834L110.932 58.292L115.656 61.2003L99.3125 80.3679V65.834Z" fill="#FFB6B6"/>
<path d="M83.4221 36.6413C83.4221 36.6413 75.7041 38.4948 79.3361 49.1521C82.9681 59.8095 94.772 82.051 98.404 80.6609C102.036 79.2708 102.49 65.3699 102.49 65.3699C102.49 65.3699 102.036 65.8333 100.22 63.9798C98.404 62.1263 98.404 62.9728 98.404 60.9278C98.404 58.8828 96.9187 57.3668 96.9187 57.3668L95.226 53.7858C95.226 53.7858 95.226 37.1047 88.4161 36.1779C81.6061 35.2512 83.4221 36.6413 83.4221 36.6413Z" fill="#E6E6E6"/>
<path d="M119.481 60.7012C122.495 57.625 123.429 53.5909 121.567 51.6909C119.706 49.7909 115.753 50.7444 112.739 53.8206C109.725 56.8968 108.791 60.9309 110.653 62.8309C112.514 64.731 116.467 63.7774 119.481 60.7012Z" fill="#FFB6B6"/>
<path d="M53.3604 98.0361L61.2892 111.43L107.495 108.64L95.1919 92.4551L53.3604 98.0361Z" fill="#D3D3D3"/>
<path d="M67.1668 160.681C66.8977 160.681 66.6633 160.478 66.6258 160.199L52.8186 57.2789C52.7776 56.9735 52.9869 56.692 53.2861 56.6503C53.5852 56.6061 53.861 56.8219 53.9021 57.1274L67.7092 160.047C67.7502 160.353 67.5409 160.634 67.2417 160.676C67.2165 160.68 67.1915 160.681 67.1668 160.681Z" fill="#D3D3D3"/>
<path d="M53.3603 160.813C53.0583 160.813 52.8135 160.563 52.8135 160.255V57.2241C52.8135 56.9159 53.0583 56.666 53.3603 56.666C53.6623 56.666 53.9071 56.9159 53.9071 57.2241V160.255C53.9071 160.563 53.6623 160.813 53.3603 160.813Z" fill="#D3D3D3"/>
<path d="M122.579 160C122.4 160 122.234 159.882 122.177 159.697L97.0195 77.5624C96.9497 77.3346 97.073 77.0917 97.2948 77.0199C97.5165 76.9485 97.7531 77.075 97.8228 77.3027L122.98 159.437C123.05 159.665 122.927 159.908 122.705 159.98C122.663 159.993 122.621 160 122.579 160Z" fill="#D3D3D3"/>
<path d="M112.69 160.534C112.446 160.534 112.223 160.367 112.16 160.114L89.4672 66.5707C89.3928 66.2721 89.5697 65.9682 89.8623 65.8922C90.1559 65.8167 90.4527 65.9968 90.5272 66.2955L113.22 159.839C113.294 160.137 113.118 160.441 112.825 160.517C112.78 160.529 112.734 160.534 112.69 160.534Z" fill="#D3D3D3"/>
<path d="M53.3604 58.8639L91.2275 58.2695L98.1994 98.8712H53.9072L53.3604 58.8639Z" fill="#D3D3D3"/>
<path d="M111.553 118.569L102.01 135.717L113.09 138.207L117.71 126.011L111.553 118.569Z" fill="#FFB6B6"/>
<path d="M105.437 132.479C105.437 132.479 105.066 129.682 102.886 130.569C100.706 131.457 94.4141 134.755 94.4141 134.755C94.4141 134.755 110.825 161.97 113.939 160.703C117.054 159.435 113.325 151.742 113.325 151.742L114.148 138.143L105.437 132.479Z" fill="#2F2E41"/>
<path d="M69.3479 85.2943C69.3479 85.2943 65.943 101.28 76.3849 106.841C86.8269 112.401 122.466 98.7319 122.466 98.7319L106.122 123.726L117.472 128.387C117.472 128.387 143.35 93.6349 141.534 88.0745C139.718 82.5141 127.46 82.0507 127.46 82.0507L99.7658 83.4409L92.5019 81.124L69.3479 85.2943Z" fill="#2F2E41"/>
<path d="M97.4344 126.178L82.4316 138.606L91.8648 145.04L100.516 135.396L97.4344 126.178Z" fill="#FFB6B6"/>
<path d="M86.778 136.863C86.778 136.863 87.4296 134.121 85.0826 134.138C82.7356 134.155 75.6992 134.89 75.6992 134.89C75.6992 134.89 81.2818 166.334 84.6347 166.31C87.9876 166.286 87.2578 157.736 87.2578 157.736L92.8725 145.375L86.778 136.863Z" fill="#2F2E41"/>
<path d="M69.9857 79.5088C69.9857 79.5088 61.1147 93.1344 68.8584 102.192C76.6021 111.249 114.671 111.753 114.671 111.753L90.5365 128.963L99.4466 137.52C99.4466 137.52 135.941 114.761 136.232 108.907C136.522 103.054 125.27 98.0697 125.27 98.0697L98.9791 89.0793L93.0391 84.2235L69.9857 79.5088Z" fill="#2F2E41"/>
<path d="M92.7751 47.95C92.7751 47.95 84.1491 44.7064 80.0631 44.7064C79.6727 44.7064 79.2868 44.7527 78.9009 44.8361C76.2858 45.4015 73.8796 47.6951 72.7265 48.9462C72.277 49.4374 72.0183 49.7663 72.0183 49.7663C72.0183 49.7663 72.0455 49.4466 72.1 48.8859C72.3678 45.939 73.3575 36.2685 75.1327 30.078C75.7683 27.8677 76.4992 26.1023 77.3391 25.2451C79.2958 23.2434 80.1993 20.8431 80.617 19.0546C80.9711 17.5208 80.9711 16.4412 80.9711 16.4412L77.6615 14.9862L77.0485 10.8993C76.9396 11.3812 76.4357 12.3219 74.7422 14.1244C74.597 14.2773 74.438 14.407 74.2701 14.5182C71.8276 16.0844 66.8472 13.3598 64.1641 11.6454C65.2809 7.6836 67.3057 4.06007 70.9831 3.46699C79.6091 2.07689 79.6091 -3.02011 85.0571 2.54026C85.5065 2.99899 85.9605 3.43919 86.4145 3.86547C88.1579 7.26658 88.7935 11.8261 89.0205 14.9955C89.1839 17.215 89.1431 18.758 89.1431 18.758C89.1431 18.758 91.4131 32.659 95.045 35.4391C98.677 38.2193 92.7751 47.95 92.7751 47.95Z" fill="#2F2E41"/>
<path d="M75.9771 25.708L69.8428 34.8915L83.6951 38.6822V25.708H75.9771Z" fill="#FFB6B6"/>
<path opacity="0.1" d="M75.9771 25.708L69.8428 34.8915L83.6951 38.6822V25.708H75.9771Z" fill="black"/>
<path d="M84.5568 34.5535L71.3908 28.9932C71.3908 28.9932 53.6849 36.8704 55.0469 52.1614C56.4089 67.4524 69.1209 93.8642 69.1209 93.8642L94.5448 82.7435L91.8208 53.0881L84.5568 34.5535Z" fill="#E6E6E6"/>
<path d="M78.9119 29.809C85.327 29.809 90.5275 24.5012 90.5275 17.9538C90.5275 11.4064 85.327 6.09863 78.9119 6.09863C72.4968 6.09863 67.2964 11.4064 67.2964 17.9538C67.2964 24.5012 72.4968 29.809 78.9119 29.809Z" fill="#FFB6B6"/>
<path d="M94.5912 13.661C92.3212 15.9778 90.5052 18.2947 90.5052 18.2947L89.5972 14.5877C89.5972 14.5877 89.3884 14.7453 89.0207 14.9955C87.5815 15.9963 83.718 18.5124 80.6171 19.0546C79.237 19.2955 78.0112 19.1426 77.2122 18.2947C75.5188 16.4922 75.0148 15.5515 74.9059 15.0696L74.293 19.1565L70.9833 20.6115C70.9833 20.6115 70.9833 25.6992 74.6153 29.4154C74.7924 29.5961 74.9649 29.8185 75.1329 30.078C76.8671 32.747 78.1111 39.2804 78.901 44.8361C79.6002 49.7756 79.9361 53.9366 79.9361 53.9366C79.9361 53.9366 76.4994 49.5439 72.7267 48.9462C72.5178 48.9137 72.309 48.8906 72.1002 48.8859C72.032 48.8767 71.9594 48.8767 71.8913 48.8767C67.8053 48.8767 59.1794 52.1202 59.1794 52.1202C59.1794 52.1202 53.2774 42.3896 56.9094 39.6094C60.5414 36.8292 62.8113 22.9283 62.8113 22.9283C62.8113 22.9283 62.6615 16.9787 64.1643 11.6454C65.2811 7.68359 67.3059 4.06009 70.9833 3.467C79.6093 2.07691 79.6093 -3.02011 85.0573 2.54026C85.5067 2.99898 85.9607 3.4392 86.4147 3.86549C91.4904 8.62889 96.6751 11.5342 94.5912 13.661Z" fill="#2F2E41"/>
<path d="M12.138 76.2266H7.82422V163.182H12.138V76.2266Z" fill="#3F3D56"/>
<path d="M169.789 76.8516H165.475V163.807H169.789V76.8516Z" fill="#3F3D56"/>
<path d="M120.579 36H92V65.1687H120.579V36Z" fill="#3393C4"/>
<path d="M75.7041 69.999L87.324 62.457L92.048 65.3654L75.7041 84.533V69.999Z" fill="#FFB6B6"/>
<path d="M59.8137 40.8063C59.8137 40.8063 52.0957 42.6598 55.7277 53.3172C59.3597 63.9746 71.1636 86.216 74.7956 84.826C78.4276 83.4359 78.8816 69.5349 78.8816 69.5349C78.8816 69.5349 78.4276 69.9983 76.6116 68.1448C74.7956 66.2914 74.7956 67.1378 74.7956 65.0928C74.7956 63.0478 73.3103 61.5319 73.3103 61.5319L71.6176 57.9508C71.6176 57.9508 71.6176 41.2697 64.8077 40.343C57.9977 39.4162 59.8137 40.8063 59.8137 40.8063Z" fill="#E6E6E6"/>
<path d="M95.8723 64.8662C98.8864 61.79 99.8206 57.756 97.959 55.8559C96.0973 53.9559 92.1448 54.9094 89.1308 57.9856C86.1167 61.0619 85.1825 65.0959 87.0441 66.996C88.9057 68.896 92.8582 67.9425 95.8723 64.8662Z" fill="#FFB6B6"/>
<path d="M178 73.2549H0V83.1543H178V73.2549Z" fill="#3F3D56"/>
</svg>
