<svg width="179" height="169" viewBox="0 0 179 169" fill="none" xmlns="http://www.w3.org/2000/svg">
<path d="M176.682 58.0749L148.194 49.8936C147.564 49.7127 146.903 49.6467 146.246 49.6991L1.86398 61.2265C-0.19464 61.3909 -0.712008 63.9957 1.14535 64.8446L5.77019 66.9583H5.64687V168.143H10.0048V68.8937L24.4994 75.5181C25.6084 76.025 26.8461 76.2319 28.0734 76.1156L29.6156 75.9694V168.143H33.9736V75.5565L145.646 64.9744V168.143H150.004V64.5615L168.525 62.8064V168.143H172.883V62.3934L176.262 62.0733C178.634 61.8485 178.962 58.7295 176.682 58.0749Z" fill="#3F3D56"/>
<path d="M43.7788 60.8288C46.5025 60.8288 86.8136 56.2295 86.8136 56.2295L92.8058 63.895L50.8605 71.5606L43.7788 60.8288Z" fill="white"/>
<path d="M88.0207 164.216L81.0172 164.204L77.7319 138.856L88.0685 138.874L88.0207 164.216Z" fill="#A0616A"/>
<path d="M64.026 164.027C63.8073 164.372 63.6902 165.483 63.6895 165.884C63.6872 167.116 64.7496 168.116 66.0624 168.118L87.7514 168.153C88.647 168.154 89.3743 167.474 89.3758 166.634L89.3774 165.787C89.3774 165.787 90.455 163.243 88.2518 160.101C88.2518 160.101 85.5018 162.554 81.4064 158.699L80.2004 156.641L71.4323 162.635L66.5773 163.187C65.5151 163.308 64.5738 163.165 64.026 164.027Z" fill="#2F2E41"/>
<path d="M125.61 152.429L120.084 156.339L101.378 138.205L109.533 132.435L125.61 152.429Z" fill="#A0616A"/>
<path d="M106.585 165.707C106.631 166.101 107.246 167.042 107.5 167.358C108.281 168.33 109.754 168.523 110.79 167.79L127.902 155.681C128.608 155.181 128.749 154.238 128.216 153.575L127.678 152.907C127.678 152.907 126.91 150.299 123.176 149.057C123.176 149.057 122.569 152.528 116.891 151.782L114.632 150.836L111.535 160.465L108.061 163.617C107.301 164.307 106.468 164.721 106.585 165.707Z" fill="#2F2E41"/>
<path d="M110.973 21.4265C110.973 27.4852 105.737 32.3968 99.2785 32.3968C92.8201 32.3968 87.5845 27.4852 87.5845 21.4265C87.5845 15.3677 92.8201 10.4561 99.2785 10.4561C105.737 10.4561 110.973 15.3677 110.973 21.4265Z" fill="#A0616A"/>
<path d="M109.871 84.677C109.871 84.677 66.8146 82.3907 64.3774 86.9634C61.9403 91.536 77.5529 154.346 77.5529 154.346L91.482 151.607L84.6869 107.54C84.6869 107.54 120.616 116.467 125.49 105.797C130.365 95.1278 128.961 91.155 128.961 91.155L109.871 84.677Z" fill="#2F2E41"/>
<path d="M120.902 77.002C120.902 77.002 78.7355 85.4821 77.6746 90.4966C76.6137 95.5112 109.381 152.209 109.381 152.209L122.042 146.111L103.063 105.3C103.063 105.3 140.229 104.993 141.921 93.4936C143.613 81.9945 141.14 78.5114 141.14 78.5114L120.902 77.002Z" fill="#2F2E41"/>
<path d="M125.712 34H105.454L91.5922 55.339C91.5922 55.339 88.3427 69.129 91.5922 70.6172C94.8417 72.1054 94.8417 88.1097 94.8417 88.1097L128.962 91.1581C128.962 91.1581 133.836 43.1453 132.211 38.5726C130.586 34 125.712 34 125.712 34Z" fill="#3393C4"/>
<path d="M93.6231 48.0967L91.5921 70.6148L68.7485 61.5197L63.2965 58.9474C62.2287 57.6412 60.8429 56.5938 59.2551 55.893C55.3067 54.0878 51.1149 54.5349 49.8906 56.8913C48.6663 59.2478 50.8736 62.6209 54.8209 64.425C56.3881 65.1666 58.1219 65.5451 59.8772 65.5291L75.8292 74.0287L75.848 73.9955L75.9187 74.1139L100.934 83.9157L106.69 54.3546L93.6231 48.0967Z" fill="#A0616A"/>
<path d="M91.1864 22.9479C91.1864 22.9479 79.0007 24.4721 83.875 14.5647C83.875 14.5647 83.1318 9.19396 86.7529 8.83091C90.374 8.46786 95.2483 2.371 95.2483 2.371C95.2483 2.371 106.423 -2.96375 112.209 2.371C117.995 7.70576 135.055 38.9522 135.055 38.9522L123.681 50.3838C123.681 50.3838 116.844 33.5214 108.889 35.4747C100.935 37.428 93.6235 43.2518 93.6235 43.2518C93.6235 43.2518 85.5509 39.4619 89.181 36.1586C92.8111 32.8553 91.1864 22.9479 91.1864 22.9479Z" fill="#2F2E41"/>
<path d="M107.433 39.7149C107.433 39.7149 101.747 32.8559 97.6849 38.1907C93.623 43.5254 90.3735 50.3844 90.3735 50.3844L106.621 55.7191L107.433 39.7149Z" fill="#3393C4"/>
<path d="M169.123 166.629L150.246 110.343L150.249 110.343H150.293L150.217 110.251L150.215 110.249L148.87 106.24L148.871 106.24C150.919 104.584 152.314 102.218 152.592 99.4939L143.963 54.9725C144.557 49.1263 139.779 44.0159 133.52 43.8064L114.051 43.7604C108.516 43.5764 103.723 47.3274 102.916 52.4685L102.486 55.1974L96.5211 93.2644C96.3032 94.6339 96.3904 95.9831 96.7336 97.2454L92.441 97.7718L91.139 97.9353L85.9912 98.5638L85.9749 98.5689L85.3321 98.6456H84.6348V114.999H84.6784V167.267C84.6784 167.605 84.9725 167.881 85.3321 167.881C85.697 167.881 85.9912 167.605 85.9912 167.267V114.999H93.6285L101.249 167.206C101.299 167.513 101.576 167.738 101.903 167.738C101.93 167.738 101.963 167.738 101.99 167.732C102.35 167.686 102.6 167.375 102.551 167.037L94.9577 114.999H131.603C135.241 114.999 138.613 113.916 141.358 112.061L155.887 167.11C155.963 167.389 156.23 167.574 156.523 167.574C156.576 167.574 156.631 167.568 156.685 167.555C157.036 167.471 157.248 167.136 157.159 166.807L142.49 111.225C142.685 111.072 142.88 110.91 143.064 110.742L148.897 110.42L167.872 166.999C167.96 167.262 168.218 167.43 168.497 167.43C168.562 167.43 168.629 167.421 168.694 167.402C169.04 167.299 169.232 166.954 169.123 166.629ZM147.624 107.113C147.673 107.088 147.716 107.057 147.76 107.032L147.9 107.449L147.624 107.113Z" fill="#D3D3D3"/>
</svg>
