<svg width="22" height="22" viewBox="0 0 22 22" fill="none" xmlns="http://www.w3.org/2000/svg">
<g clip-path="url(#clip0_641_119)">
<path d="M17.875 -0.000488047H4.125C3.9444 -0.000593488 3.76556 0.0349 3.59869 0.103963C3.43182 0.173026 3.28019 0.274303 3.15249 0.402005C3.02479 0.529707 2.92351 0.681327 2.85445 0.848198C2.78539 1.01507 2.74989 1.19391 2.75 1.37451V20.6245C2.74997 20.8836 2.82312 21.1374 2.96101 21.3567C3.0989 21.576 3.29593 21.7519 3.52942 21.8642C3.7629 21.9764 4.02334 22.0205 4.28075 21.9912C4.53815 21.9619 4.78206 21.8605 4.98438 21.6987L11 16.8849L17.0156 21.6987C17.2179 21.8605 17.4618 21.9619 17.7193 21.9912C17.9767 22.0205 18.2371 21.9764 18.4706 21.8642C18.7041 21.7519 18.9011 21.576 19.039 21.3567C19.1769 21.1374 19.25 20.8836 19.25 20.6245V1.37451C19.2501 1.19391 19.2146 1.01507 19.1455 0.848198C19.0765 0.681327 18.9752 0.529707 18.8475 0.402005C18.7198 0.274303 18.5682 0.173026 18.4013 0.103963C18.2344 0.0349 18.0556 -0.000593488 17.875 -0.000488047ZM16.5 17.763L11.8594 14.0503C11.6153 13.8556 11.3123 13.7495 11 13.7495C10.6877 13.7495 10.3847 13.8556 10.1406 14.0503L5.5 17.763V2.74951H16.5V17.763Z" fill="black"/>
</g>
<defs>
<clipPath id="clip0_641_119">
<rect width="22" height="22" fill="white"/>
</clipPath>
</defs>
</svg>
